<?xml version="1.0" encoding="utf-8"?>
<!-- Generator: Adobe Illustrator 25.0.1, SVG Export Plug-In . SVG Version: 6.00 Build 0)  -->
<svg version="1.1" id="Слой_8__x28_копия_x29_"
	 xmlns="http://www.w3.org/2000/svg" xmlns:xlink="http://www.w3.org/1999/xlink" x="0px" y="0px" viewBox="0 0 132.4 65.9"
	 style="enable-background:new 0 0 132.4 65.9;" xml:space="preserve">
<style type="text/css">
	.st0{fill:#F4F4F4;}
	.st1{fill:#1A1A22;}
	.st2{font-family:'Corbel';}
	.st3{font-size:26px;}
	.st4{fill:#E8E5BA;}
</style>
<rect x="59.8" y="15.2" class="st0" width="25.2" height="20.3"/>
<rect x="109.9" y="17.5" class="st0" width="22.5" height="27.9"/>
<g>
	<text transform="matrix(1 0 0 1 65.5047 31.4163)" class="st1 st2 st3">o</text>
</g>
<g>
	<text transform="matrix(1 0 0 1 114.2196 37.4768)" class="st1 st2 st3">o</text>
</g>
<g>
	<path class="st4" d="M49.8,47c-0.5,2.4-1.1,4.8-1.7,7.4l-2.9,11.5h-4.7l-8.1-25.6h5l3.1,10.2c0.9,3.2,1.7,6.1,2.3,8.7h0.1
		c0.6-2.8,1.2-5.6,2-8.5l2.6-10.3h4.8l2.6,10.3c0.7,2.9,1.4,5.7,2,8.5H57c0.7-3.1,1.5-6,2.3-8.7l3.1-10.2h5l-8.1,25.6h-4.7
		l-2.9-11.5C51,51.8,50.4,49.4,49.8,47C49.9,47,49.8,47,49.8,47z"/>
	<path class="st4" d="M81.1,63.9L81.1,63.9c-0.3,0.3-0.6,0.5-1,0.8s-0.8,0.5-1.2,0.8s-1,0.4-1.5,0.6s-1.2,0.2-1.8,0.2
		c-0.9,0-1.7-0.1-2.5-0.4s-1.4-0.7-2-1.2s-1-1.1-1.3-1.9s-0.5-1.5-0.5-2.5s0.2-1.9,0.5-2.7s0.9-1.5,1.5-2c0.7-0.5,1.4-1,2.3-1.3
		s1.9-0.4,3-0.4c0.8,0,1.5,0,2.2,0.2c0.7,0.1,1.3,0.2,1.8,0.4v-0.8c0-0.4-0.1-0.8-0.2-1.3s-0.4-0.8-0.7-1.1s-0.8-0.6-1.3-0.8
		s-1.2-0.3-1.9-0.3c-0.9,0-1.8,0.1-2.8,0.3c-0.9,0.2-1.9,0.5-3,0.9v-3.5c0.9-0.4,1.9-0.7,3-0.9c1-0.2,2.1-0.3,3.3-0.3
		c1.3,0,2.5,0.2,3.6,0.5c1,0.3,1.9,0.8,2.5,1.4c0.7,0.6,1.2,1.3,1.5,2.1s0.5,1.7,0.5,2.6v7c0,1.2,0,2.3,0,3.2s0.1,1.7,0.1,2.3h-4.1
		V63.9z M80.8,58c-0.4-0.1-0.9-0.2-1.5-0.3s-1.1-0.1-1.7-0.1c-1.1,0-2,0.2-2.6,0.7s-1,1.1-1,2c0,0.4,0.1,0.8,0.2,1.1
		c0.2,0.3,0.3,0.6,0.6,0.8s0.5,0.4,0.9,0.5s0.7,0.2,1.1,0.2c0.5,0,0.9-0.1,1.3-0.2s0.8-0.3,1.1-0.5c0.3-0.2,0.7-0.4,0.9-0.6
		c0.3-0.2,0.5-0.5,0.7-0.7C80.8,60.8,80.8,58,80.8,58z"/>
	<path class="st4" d="M90.6,65.9V38.2h4.5v27.7H90.6L90.6,65.9z"/>
	<path class="st4" d="M100.4,65.9V38.2h4.5v27.7H100.4L100.4,65.9z"/>
</g>
<rect y="11.6" class="st0" width="28.7" height="39.1"/>
<rect x="31.1" y="0.9" class="st0" width="26.1" height="34.7"/>
<rect x="87.7" y="6" class="st0" width="20.4" height="26.1"/>
<g>
	<g>
		<text transform="matrix(1 0 0 1 92.6436 27.8421)" class="st1 st2 st3">t</text>
	</g>
</g>
<g>
	<text transform="matrix(1 0 0 1 7.4189 41.0605)" class="st1 st2 st3">P</text>
</g>
<text transform="matrix(1 0 0 1 37.0295 26.7257)" class="st1 st2 st3">h</text>
</svg>
